<svg xmlns="http://www.w3.org/2000/svg" version="1.1" xmlns:xlink="http://www.w3.org/1999/xlink" xmlns:svgjs="http://svgjs.dev/svgjs" width="2000" height="1500" viewBox="0 0 2000 1500"><rect width="2000" height="1500" fill="#1f2d5a"></rect><g transform="matrix(0.75,0,0,0.75,249.09091778566813,541.37692667537)"><svg viewBox="0 0 396 110" data-background-color="#1f2d5a" preserveAspectRatio="xMidYMid meet" height="555" width="2000" xmlns="http://www.w3.org/2000/svg" xmlns:xlink="http://www.w3.org/1999/xlink"><defs></defs><g id="tight-bounds" transform="matrix(1,0,0,1,0.23999770458362946,0.1316232586461581)"><svg viewBox="0 0 395.52 109.73674736751853" height="109.73674736751853" width="395.52"><g><svg viewBox="0 0 714.08934693888 198.12358986364322" height="109.73674736751853" width="395.52"><g><rect width="11.889467258879998" height="189.71629041164783" x="275.55561983999996" y="4.203649725997693" fill="#fbfbfb" opacity="1" stroke-width="0" stroke="transparent" fill-opacity="1" class="rect-o-0" data-fill-palette-color="primary" rx="1%" id="o-0" data-palette-color="#fbfbfb"></rect></g><g transform="matrix(1,0,0,1,318.56934693887996,4.6755807966734295)"><svg viewBox="0 0 395.52 188.77242827029636" height="188.77242827029636" width="395.52"><g><svg viewBox="0 0 395.52 188.77242827029636" height="188.77242827029636" width="395.52"><g><svg viewBox="0 0 395.52 131.83999999999997" height="131.83999999999997" width="395.52"><g transform="matrix(1,0,0,1,0,0)"><svg width="395.52" viewBox="3.3499999046325684 -34.900001525878906 106.48999786376953 35.5" height="131.83999999999997" data-palette-color="#fbfbfb"><g class="undefined-text-0" data-fill-palette-color="primary" id="text-0"><path d="M3.35 0L3.35-34.3 24.7-34.3 24.7-29.75 8.35-29.75 8.35-19.8 22.5-19.8 22.5-15.3 8.35-15.3 8.35-4.55 25-4.55 25 0 3.35 0ZM27.3 0L38.25-34.3 44.5-34.3 55.45 0 50.1 0 47.85-7.35 34.55-7.35 32.3 0 27.3 0ZM35.9-11.9L46.45-11.9 42.15-25.95Q41.75-27.25 41.3-30L41.3-30 41.1-30Q40.65-27.15 40.25-25.95L40.25-25.95 35.9-11.9ZM68.9 0.6Q63.8 0.6 60.55-1.98 57.3-4.55 57.3-9.8L57.3-9.8 57.35-10.85 62.55-10.85 62.5-9.85Q62.5-7 64.25-5.45 66-3.9 68.9-3.9L68.9-3.9Q72.09-3.9 73.77-5.28 75.45-6.65 75.45-9.1L75.45-9.1Q75.45-10.9 74.47-12.05 73.5-13.2 72.02-13.88 70.55-14.55 68-15.35L68-15.35Q64.8-16.4 62.8-17.4 60.8-18.4 59.4-20.38 58-22.35 58-25.55L58-25.55Q58-30.1 61.12-32.5 64.25-34.9 69.05-34.9L69.05-34.9Q73.84-34.9 76.9-32.45 79.95-30 79.95-25.1L79.95-25.1 79.95-24.5 74.75-24.5 74.75-25.15Q74.75-27.6 73.17-29 71.59-30.4 69.09-30.4L69.09-30.4Q66.45-30.4 64.84-29.25 63.25-28.1 63.25-25.95L63.25-25.95Q63.25-24.35 64.2-23.28 65.15-22.2 66.59-21.55 68.05-20.9 70.5-20.15L70.5-20.15Q73.75-19.1 75.77-18.1 77.8-17.1 79.25-15.15 80.7-13.2 80.7-10.05L80.7-10.05Q80.7-4.5 77.52-1.95 74.34 0.6 68.9 0.6L68.9 0.6ZM93.94 0L93.94-13.8 82.99-34.3 88.44-34.3 96.64-18.65 96.84-18.65 104.89-34.3 109.84-34.3 98.94-13.8 98.94 0 93.94 0Z" fill="#fbfbfb" data-fill-palette-color="primary"></path></g></svg></g></svg></g><g transform="matrix(1,0,0,1,0,162.96425983999995)"><svg viewBox="0 0 232.20979199999996 25.808168430296373" height="25.808168430296373" width="232.20979199999996"><g transform="matrix(1,0,0,1,0,0)"><svg width="232.20979199999996" viewBox="0.550000011920929 -39.75 364.3600158691406 40.5" height="25.808168430296373" data-palette-color="#fbfbfb"><path d="M12.75-35.3Q16.05-35.3 18.53-34.25 21-33.2 23.1-31.05L23.1-31.05 20-27.5Q18.35-28.95 16.7-29.65 15.05-30.35 13.15-30.35L13.15-30.35Q11.05-30.35 9.78-29.25 8.5-28.15 8.5-26.2L8.5-26.2Q8.5-24.9 9.03-24 9.55-23.1 10.9-22.33 12.25-21.55 14.8-20.65L14.8-20.65Q19.45-18.95 21.73-16.6 24-14.25 24-9.85L24-9.85Q24-6.8 22.55-4.4 21.1-2 18.38-0.63 15.65 0.75 12 0.75L12 0.75Q5.15 0.75 0.55-3.95L0.55-3.95 3.85-7.6Q5.75-5.95 7.63-5.1 9.5-4.25 11.75-4.25L11.75-4.25Q14.3-4.25 15.78-5.65 17.25-7.05 17.25-9.5L17.25-9.5Q17.25-11.7 16-12.98 14.75-14.25 11.25-15.45L11.25-15.45Q6.25-17.2 4.05-19.6 1.85-22 1.85-25.75L1.85-25.75Q1.85-28.5 3.25-30.68 4.65-32.85 7.15-34.08 9.65-35.3 12.75-35.3L12.75-35.3ZM38.65-27.2Q44-27.2 47-23.6 50-20 50-13.25L50-13.25Q50-6.75 46.97-3 43.95 0.75 38.65 0.75L38.65 0.75Q33.3 0.75 30.27-2.93 27.25-6.6 27.25-13.25L27.25-13.25Q27.25-19.8 30.27-23.5 33.3-27.2 38.65-27.2L38.65-27.2ZM38.65-22.45Q36.2-22.45 35-20.28 33.8-18.1 33.8-13.25L33.8-13.25Q33.8-8.35 35-6.18 36.2-4 38.65-4L38.65-4Q41.1-4 42.3-6.2 43.5-8.4 43.5-13.25L43.5-13.25Q43.5-18.15 42.3-20.3 41.1-22.45 38.65-22.45L38.65-22.45ZM65.35-32.95Q63.7-32.95 63-32.18 62.3-31.4 62.3-29.65L62.3-29.65 62.3-26.45 67.9-26.45 67.2-21.95 62.3-21.95 62.3 0 56.05 0 56.05-21.95 52.25-21.95 52.25-26.45 56.05-26.45 56.05-29.6Q56.05-33.25 58.27-35.48 60.5-37.7 64.65-37.7L64.65-37.7Q67.95-37.7 70.95-36.2L70.95-36.2 69.2-32.05Q67.25-32.95 65.35-32.95L65.35-32.95ZM83.04-5.15L85.24-1.25Q83.94-0.25 82.37 0.25 80.79 0.75 79.14 0.75L79.14 0.75Q75.49 0.75 73.57-1.35 71.64-3.45 71.64-7.2L71.64-7.2 71.64-21.95 68.09-21.95 68.09-26.45 71.64-26.45 71.64-32.3 77.89-33.05 77.89-26.45 83.44-26.45 82.79-21.95 77.89-21.95 77.89-7.25Q77.89-5.75 78.47-5.03 79.04-4.3 80.29-4.3L80.29-4.3Q81.64-4.3 83.04-5.15L83.04-5.15ZM112.09-26.45L117.99-26.45 112.94 0 105.19 0 101.79-20.8 98.34 0 90.74 0 85.54-26.45 91.69-26.45 94.84-4.65 98.74-26.45 105.14-26.45 108.79-4.65 112.09-26.45ZM139.99-6.65Q139.99-5.25 140.39-4.58 140.79-3.9 141.69-3.5L141.69-3.5 140.39 0.65Q138.24 0.4 136.91-0.45 135.59-1.3 134.94-3.1L134.94-3.1Q132.49 0.75 127.84 0.75L127.84 0.75Q124.29 0.75 122.19-1.5 120.09-3.75 120.09-7.4L120.09-7.4Q120.09-11.7 122.94-13.98 125.79-16.25 131.19-16.25L131.19-16.25 133.84-16.25 133.84-17.9Q133.84-20.4 132.84-21.45 131.84-22.5 129.59-22.5L129.59-22.5Q126.99-22.5 123.19-21.15L123.19-21.15 121.74-25.3Q126.29-27.2 130.59-27.2L130.59-27.2Q139.99-27.2 139.99-18.25L139.99-18.25 139.99-6.65ZM129.54-3.8Q132.29-3.8 133.84-7.05L133.84-7.05 133.84-12.55 131.84-12.55Q126.34-12.55 126.34-7.85L126.34-7.85Q126.34-5.85 127.19-4.83 128.04-3.8 129.54-3.8L129.54-3.8ZM158.89-27.15Q159.94-27.15 161.24-26.8L161.24-26.8 160.19-20.75Q159.14-21.05 158.09-21.05L158.09-21.05Q155.99-21.05 154.76-19.4 153.54-17.75 152.89-14.4L152.89-14.4 152.89 0 146.64 0 146.64-26.45 152.09-26.45 152.59-21.55Q153.54-24.3 155.14-25.73 156.74-27.15 158.89-27.15L158.89-27.15ZM184.68-13.85Q184.68-13.4 184.53-11.3L184.53-11.3 169.58-11.3Q169.88-7.3 171.28-5.65 172.68-4 175.18-4L175.18-4Q176.78-4 178.18-4.55 179.58-5.1 181.18-6.25L181.18-6.25 183.78-2.7Q179.83 0.75 174.73 0.75L174.73 0.75Q169.18 0.75 166.18-2.9 163.18-6.55 163.18-13.05L163.18-13.05Q163.18-19.45 166.06-23.33 168.93-27.2 174.08-27.2L174.08-27.2Q179.08-27.2 181.88-23.75 184.68-20.3 184.68-13.85L184.68-13.85ZM178.53-15.35L178.53-15.65Q178.53-19.25 177.48-21.03 176.43-22.8 174.13-22.8L174.13-22.8Q172.03-22.8 170.91-21.08 169.78-19.35 169.58-15.35L169.58-15.35 178.53-15.35ZM208.48-27.2Q213.43-27.2 217.08-24.05L217.08-24.05 214.63-20.5Q211.68-22.6 208.78-22.6L208.78-22.6Q207.13-22.6 206.23-21.85 205.33-21.1 205.33-19.8L205.33-19.8Q205.33-18.85 205.75-18.25 206.18-17.65 207.23-17.07 208.28-16.5 210.38-15.8L210.38-15.8Q214.18-14.55 216.03-12.7 217.88-10.85 217.88-7.6L217.88-7.6Q217.88-3.7 214.95-1.48 212.03 0.75 207.58 0.75L207.58 0.75Q204.63 0.75 202.18-0.23 199.73-1.2 197.93-2.95L197.93-2.95 201.03-6.4Q204.13-3.9 207.38-3.9L207.38-3.9Q209.28-3.9 210.35-4.75 211.43-5.6 211.43-7.15L211.43-7.15Q211.43-8.3 211-9 210.58-9.7 209.48-10.3 208.38-10.9 206.13-11.6L206.13-11.6Q202.43-12.85 200.75-14.75 199.08-16.65 199.08-19.45L199.08-19.45Q199.08-21.65 200.23-23.43 201.38-25.2 203.53-26.2 205.68-27.2 208.48-27.2L208.48-27.2ZM232.33-27.2Q237.68-27.2 240.68-23.6 243.68-20 243.68-13.25L243.68-13.25Q243.68-6.75 240.65-3 237.63 0.75 232.33 0.75L232.33 0.75Q226.98 0.75 223.95-2.93 220.93-6.6 220.93-13.25L220.93-13.25Q220.93-19.8 223.95-23.5 226.98-27.2 232.33-27.2L232.33-27.2ZM232.33-22.45Q229.88-22.45 228.68-20.28 227.48-18.1 227.48-13.25L227.48-13.25Q227.48-8.35 228.68-6.18 229.88-4 232.33-4L232.33-4Q234.78-4 235.98-6.2 237.18-8.4 237.18-13.25L237.18-13.25Q237.18-18.15 235.98-20.3 234.78-22.45 232.33-22.45L232.33-22.45ZM254.82 0.75Q251.92 0.75 250.3-0.95 248.67-2.65 248.67-5.7L248.67-5.7 248.67-37.05 254.92-37.7 254.92-5.9Q254.92-4.3 256.27-4.3L256.27-4.3Q256.92-4.3 257.52-4.5L257.52-4.5 258.77-0.2Q257.12 0.75 254.82 0.75L254.82 0.75ZM281.87-26.45L281.87 0 276.47 0 276.12-3.5Q274.77-1.35 273.05-0.3 271.32 0.75 268.97 0.75L268.97 0.75Q265.77 0.75 264-1.35 262.22-3.45 262.22-7L262.22-7 262.22-26.45 268.47-26.45 268.47-7.55Q268.47-5.7 269.1-4.85 269.72-4 271.07-4L271.07-4Q273.67-4 275.62-7.6L275.62-7.6 275.62-26.45 281.87-26.45ZM300.37-5.15L302.57-1.25Q301.27-0.25 299.69 0.25 298.12 0.75 296.47 0.75L296.47 0.75Q292.82 0.75 290.89-1.35 288.97-3.45 288.97-7.2L288.97-7.2 288.97-21.95 285.42-21.95 285.42-26.45 288.97-26.45 288.97-32.3 295.22-33.05 295.22-26.45 300.77-26.45 300.12-21.95 295.22-21.95 295.22-7.25Q295.22-5.75 295.79-5.03 296.37-4.3 297.62-4.3L297.62-4.3Q298.97-4.3 300.37-5.15L300.37-5.15ZM305.57-26.45L311.82-26.45 311.82 0 305.57 0 305.57-26.45ZM308.72-39.75Q310.42-39.75 311.49-38.68 312.57-37.6 312.57-35.95L312.57-35.95Q312.57-34.3 311.49-33.23 310.42-32.15 308.72-32.15L308.72-32.15Q307.02-32.15 305.94-33.23 304.87-34.3 304.87-35.95L304.87-35.95Q304.87-37.6 305.94-38.68 307.02-39.75 308.72-39.75L308.72-39.75ZM328.41-27.2Q333.76-27.2 336.76-23.6 339.76-20 339.76-13.25L339.76-13.25Q339.76-6.75 336.74-3 333.71 0.75 328.41 0.75L328.41 0.75Q323.06 0.75 320.04-2.93 317.01-6.6 317.01-13.25L317.01-13.25Q317.01-19.8 320.04-23.5 323.06-27.2 328.41-27.2L328.41-27.2ZM328.41-22.45Q325.96-22.45 324.76-20.28 323.56-18.1 323.56-13.25L323.56-13.25Q323.56-8.35 324.76-6.18 325.96-4 328.41-4L328.41-4Q330.86-4 332.06-6.2 333.26-8.4 333.26-13.25L333.26-13.25Q333.26-18.15 332.06-20.3 330.86-22.45 328.41-22.45L328.41-22.45ZM358.16-27.2Q361.31-27.2 363.11-25.1 364.91-23 364.91-19.4L364.91-19.4 364.91 0 358.66 0 358.66-18.55Q358.66-20.65 357.99-21.53 357.31-22.4 356.01-22.4L356.01-22.4Q354.66-22.4 353.51-21.4 352.36-20.4 351.26-18.45L351.26-18.45 351.26 0 345.01 0 345.01-26.45 350.46-26.45 350.91-23Q352.36-25.05 354.14-26.13 355.91-27.2 358.16-27.2L358.16-27.2Z" opacity="1" transform="matrix(1,0,0,1,0,0)" fill="#fbfbfb" class="undefined-text-1" data-fill-palette-color="secondary" id="text-1"></path></svg></g></svg></g></svg></g></svg></g><g><svg viewBox="0 0 244.43135999999998 198.12358986364322" height="198.12358986364322" width="244.43135999999998"><g><svg xmlns:x="http://ns.adobe.com/Extensibility/1.0/" xmlns:i="http://ns.adobe.com/AdobeIllustrator/10.0/" xmlns:graph="http://ns.adobe.com/Graphs/1.0/" xmlns="http://www.w3.org/2000/svg" xmlns:xlink="http://www.w3.org/1999/xlink" version="1.1" x="0" y="0" viewBox="3.5 12.300000190734863 92.89999389648438 75.29999542236328" enable-background="new 0 0 100 100" xml:space="preserve" height="198.12358986364322" width="244.43135999999998" class="icon-icon-0" data-fill-palette-color="accent" id="icon-0"><path d="M10.7 87.6h78.5c4 0 7.2-3.2 7.2-7.2V19.5c0-4-3.2-7.2-7.2-7.2H10.7c-4 0-7.2 3.2-7.2 7.2v60.9C3.6 84.4 6.8 87.6 10.7 87.6zM89.3 82.6H10.7c-1.2 0-2.2-1-2.2-2.2V34.9h82.9v45.5C91.4 81.7 90.5 82.6 89.3 82.6zM10.7 17.4h78.5c1.2 0 2.2 1 2.2 2.2v10.4H8.6V19.5C8.6 18.3 9.5 17.4 10.7 17.4zM21.9 23.6c0-1.7 1.4-3 3-3s3 1.4 3 3c0 1.7-1.4 3-3 3S21.9 25.3 21.9 23.6zM31.9 23.6c0-1.7 1.4-3 3-3s3 1.4 3 3c0 1.7-1.4 3-3 3S31.9 25.3 31.9 23.6zM11.9 23.6c0-1.7 1.4-3 3-3 1.7 0 3 1.4 3 3 0 1.7-1.4 3-3 3C13.3 26.7 11.9 25.3 11.9 23.6zM85.4 74.7c0 1.4-1.1 2.5-2.5 2.5H17.1c-1.4 0-2.5-1.1-2.5-2.5s1.1-2.5 2.5-2.5h65.8C84.3 72.2 85.4 73.4 85.4 74.7zM85.4 64.2c0 1.4-1.1 2.5-2.5 2.5H34.4c-1.4 0-2.5-1.1-2.5-2.5s1.1-2.5 2.5-2.5h48.5C84.3 61.7 85.4 62.8 85.4 64.2zM85.4 53.7c0 1.4-1.1 2.5-2.5 2.5H17.1c-1.4 0-2.5-1.1-2.5-2.5s1.1-2.5 2.5-2.5h65.8C84.3 51.2 85.4 52.3 85.4 53.7zM85.4 43.1c0 1.4-1.1 2.5-2.5 2.5H50c-1.4 0-2.5-1.1-2.5-2.5s1.1-2.5 2.5-2.5h32.9C84.3 40.6 85.4 41.7 85.4 43.1z" fill="#2f76db" data-fill-palette-color="accent"></path></svg></g></svg></g></svg></g></svg><rect width="395.52" height="109.73674736751853" fill="none" stroke="none" visibility="hidden"></rect></g></svg></g></svg>